<?xml version="1.0" encoding="utf-8"?>
<!-- Generator: Adobe Illustrator 25.2.3, SVG Export Plug-In . SVG Version: 6.00 Build 0)  -->
<svg version="1.1" id="Layer_1" xmlns="http://www.w3.org/2000/svg" xmlns:xlink="http://www.w3.org/1999/xlink" x="0px" y="0px"
	 viewBox="0 0 173.5 39.75" style="enable-background:new 0 0 173.5 39.75;" xml:space="preserve">
<style type="text/css">
	.st0{fill:#8EC241;}
	.st1{fill:#6E973E;}
	.st2{fill:#BDDA7B;}
	.st3{fill:none;stroke:url(#SVGID_1_);stroke-width:0.1379;stroke-miterlimit:10;}
	.st4{fill:none;stroke:url(#SVGID_2_);stroke-width:0.1379;stroke-miterlimit:10;}
	.st5{fill:#FDB747;}
	.st6{fill:#F39E21;}
	.st7{fill:#FECA7E;}
	.st8{fill:none;stroke:url(#SVGID_3_);stroke-width:0.1379;stroke-miterlimit:10;}
	.st9{fill:none;stroke:url(#SVGID_4_);stroke-width:0.1379;stroke-miterlimit:10;}
	.st10{fill:#EE3531;}
	.st11{fill:#C52C2B;}
	.st12{fill:#F16062;}
	.st13{fill:none;stroke:url(#SVGID_5_);stroke-width:0.1379;stroke-miterlimit:10;}
	.st14{fill:none;stroke:url(#SVGID_6_);stroke-width:0.1379;stroke-miterlimit:10;}
	.st15{fill:#FFFFFF;}
</style>
<g>
	<g>
		<g>
			<polygon class="st0" points="44.07,22.59 32.6,36 48.21,26.54 48.2,26.51 44.02,22.72 			"/>
			<polygon class="st1" points="46.57,15.65 32.6,36 44.07,22.59 			"/>
			<polygon class="st2" points="46.57,15.65 44.07,22.59 44.02,22.72 48.2,26.51 47.1,19.11 46.58,15.64 			"/>
			
				<linearGradient id="SVGID_1_" gradientUnits="userSpaceOnUse" x1="-8.7573" y1="-845.7672" x2="-8.7573" y2="-862.9674" gradientTransform="matrix(0.9794 -0.202 0.202 0.9794 220.717 860.8317)">
				<stop  offset="0" style="stop-color:#71BF44;stop-opacity:0"/>
				<stop  offset="0.2759" style="stop-color:#88C540;stop-opacity:0.5613"/>
				<stop  offset="0.4916" style="stop-color:#94C93D"/>
				<stop  offset="1" style="stop-color:#119A58;stop-opacity:0"/>
			</linearGradient>
			<polyline class="st3" points="46.57,15.65 44.02,22.72 32.6,36 			"/>
			
				<linearGradient id="SVGID_2_" gradientUnits="userSpaceOnUse" x1="-2.1264" y1="-851.9336" x2="-2.1264" y2="-856.5667" gradientTransform="matrix(0.9794 -0.202 0.202 0.9794 220.717 860.8317)">
				<stop  offset="0" style="stop-color:#71BF44;stop-opacity:0"/>
				<stop  offset="0.2759" style="stop-color:#88C540;stop-opacity:0.5613"/>
				<stop  offset="0.4916" style="stop-color:#94C93D"/>
				<stop  offset="1" style="stop-color:#119A58;stop-opacity:0"/>
			</linearGradient>
			<line class="st4" x1="48.2" y1="26.51" x2="44.02" y2="22.72"/>
		</g>
		<g>
			<polygon class="st5" points="31.14,10.03 30.62,31.13 37.96,10.58 37.93,10.55 31.2,10.19 			"/>
			<polygon class="st6" points="28.24,1.71 30.62,31.13 31.14,10.03 			"/>
			<polygon class="st7" points="28.24,1.71 31.14,10.03 31.2,10.19 37.93,10.55 31.34,4.52 28.23,1.69 			"/>
			
				<linearGradient id="SVGID_3_" gradientUnits="userSpaceOnUse" x1="-16.2146" y1="-850.9793" x2="-16.2146" y2="-880.2967" gradientTransform="matrix(0.9794 -0.202 0.202 0.9794 220.717 860.8317)">
				<stop  offset="0" style="stop-color:#F7A542;stop-opacity:0"/>
				<stop  offset="0.0394" style="stop-color:#F6AC43;stop-opacity:0.0802"/>
				<stop  offset="0.2466" style="stop-color:#F4CE45;stop-opacity:0.5015"/>
				<stop  offset="0.4038" style="stop-color:#F2E146;stop-opacity:0.8214"/>
				<stop  offset="0.4916" style="stop-color:#F2EB46"/>
				<stop  offset="1" style="stop-color:#F7A542;stop-opacity:0"/>
			</linearGradient>
			<polyline class="st8" points="30.62,31.13 31.2,10.19 28.24,1.71 			"/>
			
				<linearGradient id="SVGID_4_" gradientUnits="userSpaceOnUse" x1="-10.5542" y1="-869.6071" x2="-10.5542" y2="-871.4527" gradientTransform="matrix(0.9794 -0.202 0.202 0.9794 220.717 860.8317)">
				<stop  offset="0" style="stop-color:#F7A542;stop-opacity:0"/>
				<stop  offset="0.0394" style="stop-color:#F6AC43;stop-opacity:0.0802"/>
				<stop  offset="0.2466" style="stop-color:#F4CE45;stop-opacity:0.5015"/>
				<stop  offset="0.4038" style="stop-color:#F2E146;stop-opacity:0.8214"/>
				<stop  offset="0.4916" style="stop-color:#F2EB46"/>
				<stop  offset="1" style="stop-color:#F7A542;stop-opacity:0"/>
			</linearGradient>
			<line class="st9" x1="37.93" y1="10.55" x2="31.2" y2="10.19"/>
		</g>
		<g>
			<polygon class="st10" points="11.29,17.09 28.56,36.54 17.89,11.84 17.84,11.84 11.47,17.19 			"/>
			<polygon class="st11" points="1.67,12.04 28.56,36.54 11.29,17.09 			"/>
			<polygon class="st12" points="1.67,12.04 11.29,17.09 11.47,17.19 17.84,11.84 6.82,11.97 1.64,12.02 			"/>
			
				<linearGradient id="SVGID_5_" gradientUnits="userSpaceOnUse" x1="-32.4114" y1="-846.0761" x2="-32.4113" y2="-875.5891" gradientTransform="matrix(0.9794 -0.202 0.202 0.9794 220.717 860.8317)">
				<stop  offset="0" style="stop-color:#F47754;stop-opacity:0"/>
				<stop  offset="0.0296" style="stop-color:#F47A57;stop-opacity:0.0603"/>
				<stop  offset="0.3257" style="stop-color:#F68E6D;stop-opacity:0.6625"/>
				<stop  offset="0.4916" style="stop-color:#F69576"/>
				<stop  offset="1" style="stop-color:#F47754;stop-opacity:0"/>
			</linearGradient>
			<polyline class="st13" points="28.56,36.54 11.47,17.19 1.67,12.04 			"/>
			
				<linearGradient id="SVGID_6_" gradientUnits="userSpaceOnUse" x1="-30.8958" y1="-868.4573" x2="-30.8958" y2="-872.5251" gradientTransform="matrix(0.9794 -0.202 0.202 0.9794 220.717 860.8317)">
				<stop  offset="0" style="stop-color:#F47754;stop-opacity:0"/>
				<stop  offset="0.0296" style="stop-color:#F47A57;stop-opacity:0.0603"/>
				<stop  offset="0.3257" style="stop-color:#F68E6D;stop-opacity:0.6625"/>
				<stop  offset="0.4916" style="stop-color:#F69576"/>
				<stop  offset="1" style="stop-color:#F47754;stop-opacity:0"/>
			</linearGradient>
			<line class="st14" x1="11.47" y1="17.19" x2="17.84" y2="11.84"/>
		</g>
	</g>
	<path class="st15" d="M132.01,21.49c1.49,0,2.79,0.54,3.86,1.61c1.07,1.07,1.62,2.36,1.62,3.84v9.52h4.13v-9.52
		c0-2.67-0.94-4.95-2.8-6.8c-1.86-1.84-4.16-2.78-6.83-2.78c-1.7,0-3.31,0.41-4.79,1.22l-0.71,0.39v-0.81V9.86h-4.13v26.59h4.13
		v-9.52c0-1.51,0.55-2.81,1.62-3.86C129.19,22.02,130.5,21.49,132.01,21.49z"/>
	<g>
		<rect x="145.05" y="17.35" class="st15" width="4.13" height="19.1"/>
		<path class="st15" d="M145.59,13.5c0.41,0.41,0.91,0.61,1.51,0.61c0.6,0,1.09-0.2,1.49-0.61c0.4-0.41,0.6-0.91,0.6-1.51
			c0-0.58-0.2-1.06-0.61-1.47c-0.41-0.41-0.9-0.61-1.47-0.61c-0.6,0-1.1,0.2-1.51,0.6c-0.41,0.4-0.61,0.89-0.61,1.49
			C144.97,12.6,145.18,13.09,145.59,13.5z"/>
	</g>
	<path class="st15" d="M167.59,36.45h4.13v-9.61l-0.01-0.16c-0.07-2.5-1.1-4.83-2.89-6.58c-1.8-1.75-4.17-2.71-6.67-2.71
		c-5.28,0-9.57,4.3-9.57,9.57s4.29,9.57,9.57,9.57c1.65,0,3.29-0.43,4.72-1.25l0.72-0.41v0.82V36.45z M167.58,27.62
		c-0.33,2.75-2.67,4.82-5.44,4.82c-3.02,0-5.48-2.46-5.48-5.48s2.46-5.48,5.48-5.48c2.89,0,5.29,2.26,5.46,5.15l0.03,0.51h-0.05
		v0.42v0.03L167.58,27.62z"/>
	<path class="st15" d="M88.53,36.54c1.65,0,3.29-0.43,4.72-1.25l0.72-0.41v0.82v0.74h4.13v-9.61l-0.01-0.16
		c-0.07-2.5-1.1-4.83-2.89-6.58c-1.8-1.75-4.17-2.71-6.67-2.71c-5.28,0-9.57,4.3-9.57,9.57S83.25,36.54,88.53,36.54z M88.53,21.49
		c2.89,0,5.29,2.26,5.46,5.15l0.03,0.51h-0.05v0.42v0.03l0,0.03c-0.33,2.75-2.67,4.82-5.44,4.82c-3.02,0-5.48-2.46-5.48-5.48
		S85.51,21.49,88.53,21.49z"/>
	<path class="st15" d="M109.32,28.75c1.54,0,2.85,0.53,3.88,1.57c1.03,1.04,1.57,2.35,1.6,3.87l0,0v0v2.23h4.13v-2.52
		c0-2.78-1-4.9-3.23-6.89l-0.4-0.36l0.4-0.36c2.08-1.85,3.23-4.51,3.23-7.47v-1.48h-4.13v1.77v0l0,0c-0.03,1.53-0.56,2.84-1.59,3.89
		c-1.04,1.06-2.34,1.6-3.88,1.6h-3.22h-0.48v-0.48V9.63h-4.13v26.81h4.13v-7.21v-0.48h0.48H109.32z"/>
	<path class="st15" d="M66,36.07c1.13-0.32,2.2-0.77,3.19-1.35c0.99-0.58,1.89-1.28,2.7-2.09c0.8-0.81,1.5-1.72,2.09-2.7
		c0.58-0.98,1.03-2.05,1.35-3.18c0.31-1.13,0.47-2.32,0.47-3.54c0-1.22-0.16-2.41-0.47-3.54c-0.31-1.13-0.77-2.2-1.35-3.18
		c-0.58-0.98-1.28-1.89-2.09-2.7c-0.8-0.81-1.71-1.51-2.7-2.09c-0.99-0.58-2.06-1.03-3.19-1.35c-1.13-0.31-2.32-0.47-3.54-0.47
		h-7.84v26.68h7.84C63.68,36.54,64.87,36.38,66,36.07z M59.2,32v-0.5V14.9v-0.5h0.5h2.76c1.21,0,2.36,0.23,3.43,0.7
		c1.06,0.46,2,1.1,2.8,1.89c0.79,0.79,1.43,1.73,1.88,2.79c0.46,1.06,0.69,2.21,0.69,3.42c0,1.21-0.23,2.36-0.69,3.43
		c-0.45,1.06-1.09,2.01-1.88,2.8c-0.79,0.79-1.74,1.43-2.8,1.88C64.82,31.77,63.66,32,62.46,32H59.7H59.2z"/>
</g>
</svg>
